<?xml version="1.0" encoding="utf-8"?>
<!-- Generator: Adobe Illustrator 23.0.2, SVG Export Plug-In . SVG Version: 6.00 Build 0)  -->
<svg version="1.1" id="Capa_1" xmlns="http://www.w3.org/2000/svg" xmlns:xlink="http://www.w3.org/1999/xlink" x="0px" y="0px"
	 viewBox="0 0 512 512" style="enable-background:new 0 0 512 512;" xml:space="preserve">
<style type="text/css">
	.st0{fill:#5F51D2;}
</style>
<g>
	<g>
		<path class="st0" d="M302.7,171.3c-12.5-12.5-29-19.3-46.7-19.3s-34.2,6.9-46.7,19.3c-12.5,12.5-19.3,29-19.3,46.7
			s6.9,34.2,19.3,46.7c12.9,12.9,29.8,19.3,46.7,19.3s33.8-6.4,46.7-19.3c12.5-12.5,19.3-29,19.3-46.7S315.1,183.8,302.7,171.3z
			 M210,218c0-12.3,4.8-23.8,13.5-32.5c8.7-8.7,20.2-13.5,32.5-13.5c8.9,0,17.4,2.5,24.7,7.2l-63.5,63.5
			C212.5,235.4,210,226.9,210,218z M288.5,250.5c-15.5,15.5-39.4,17.6-57.2,6.3l63.5-63.5c4.7,7.3,7.2,15.8,7.2,24.7
			C302,230.3,297.2,241.9,288.5,250.5z"/>
	</g>
</g>
<g>
	<g>
		<path class="st0" d="M423.1,359.9c-1.9-1.9-4.4-2.9-7.1-2.9s-5.2,1.1-7.1,2.9c-1.9,1.9-2.9,4.4-2.9,7.1s1.1,5.2,2.9,7.1
			c1.9,1.9,4.4,2.9,7.1,2.9s5.2-1.1,7.1-2.9c1.9-1.9,2.9-4.4,2.9-7.1S424.9,361.8,423.1,359.9z"/>
	</g>
</g>
<g>
	<g>
		<path class="st0" d="M416,333.7c5.5,0,10-4.5,10-10V320c0-26.7-15.8-50.9-40.3-61.6l-19.2-8.4c1-10.4,1.6-21.4,1.6-33
			c0-74.3-28.8-128.7-53-161.3c-26.2-35.4-52.4-53.1-53.5-53.8c-3.4-2.3-7.8-2.3-11.1,0c-1.1,0.7-27.2,18.5-53.5,53.8
			c-24.2,32.6-53,87.1-53,161.3c0,11.6,0.6,22.6,1.6,33l-19.2,8.4C101.8,269,86,293.2,86,320v101c0,3.4,1.8,6.6,4.7,8.5
			c1.6,1,3.5,1.5,5.3,1.5c1.5,0,3-0.3,4.4-1l93-45.2c7.2,9.9,12.3,15,12.7,15.4c1.9,1.8,4.4,2.9,7,2.9H246v18c0,5.5,4.5,10,10,10
			c5.5,0,10-4.5,10-10v-18h32.9c2.6,0,5.1-1,7-2.9c0.4-0.4,5.5-5.5,12.7-15.4l93,45.2c1.4,0.7,2.9,1,4.4,1c1.8,0,3.7-0.5,5.3-1.5
			c2.9-1.8,4.7-5,4.7-8.5v-15.3c0-5.5-4.5-10-10-10c-5.3,0-9.6,4.1-10,9.4l-76.4-37.1c2.5-4.3,5.1-9,7.7-14.2
			c9.6-19.1,20.6-47,26.4-83.2l13.9,6.1c17.2,7.5,28.3,24.5,28.3,43.3v3.7C406,329.2,410.5,333.7,416,333.7z M212.5,68.1
			c17.3-23.5,34.8-38.8,43.5-45.6c8.6,6.8,25.7,21.7,43,45c6.5,8.8,13.4,19.3,19.9,31.6H193C198.7,88.4,205.2,78.1,212.5,68.1z
			 M106,405V320c0-18.8,11.1-35.8,28.3-43.3l13.9-6.1c5.8,36.2,16.8,64.1,26.4,83.2c2.6,5.2,5.2,9.9,7.7,14.2L106,405z M320,343.8
			c-10.3,20.6-20.7,33.7-25.5,39.2H266v-40.7c0-5.5-4.5-10-10-10s-10,4.5-10,10V383h-28.5c-11.1-12.7-53.5-67.7-53.5-166.1
			c0-34.7,6.5-67.4,19.4-97.9h145c11.3,26.7,19.6,59.4,19.6,97.9C348,275.4,332.8,318.2,320,343.8z"/>
	</g>
</g>
<g>
	<g>
		<path class="st0" d="M358.6,451.9c-4.9,0-9.6,0.7-14.1,2c-9.8-14.8-26.5-23.9-44.7-23.9c-18,0-34,9-43.8,22.6
			c-9.7-13.7-25.7-22.6-43.8-22.6c-18.2,0-34.8,9.1-44.7,23.9c-4.5-1.3-9.2-2-14.1-2c-27.6,0-50.1,22.5-50.1,50.1
			c0,5.5,4.5,10,10,10s10-4.5,10-10c0-16.6,13.5-30.1,30.1-30.1s30.1,13.5,30.1,30.1c0,5.5,4.5,10,10,10s10-4.5,10-10
			c0-15.5-7.1-29.4-18.2-38.6c6.3-8.3,16.1-13.3,26.9-13.3c18.6,0,33.7,15.1,33.7,33.7c0,5.5,4.5,10,10,10c0,0,0,0,0.1,0
			c0,0,0,0,0.1,0c5.5,0,10-4.5,10-10c0-18.6,15.1-33.7,33.7-33.7c10.7,0,20.6,5.1,26.9,13.3c-11.1,9.2-18.2,23.1-18.2,38.6
			c0,5.5,4.5,10,10,10s10-4.5,10-10c0-16.6,13.5-30.1,30.1-30.1s30.1,13.5,30.1,30.1c0,5.5,4.5,10,10,10s10-4.5,10-10
			C408.6,474.4,386.2,451.9,358.6,451.9z"/>
	</g>
</g>
<g>
	<g>
		<path class="st0" d="M263.1,303.3c-1.9-1.9-4.4-2.9-7.1-2.9s-5.2,1.1-7.1,2.9c-1.9,1.9-2.9,4.4-2.9,7.1s1.1,5.2,2.9,7.1
			c1.9,1.9,4.4,2.9,7.1,2.9s5.2-1.1,7.1-2.9c1.9-1.9,2.9-4.4,2.9-7.1S264.9,305.1,263.1,303.3z"/>
	</g>
</g>
</svg>
