<?xml version="1.0" encoding="utf-8"?>
<!-- Generator: Adobe Illustrator 23.0.2, SVG Export Plug-In . SVG Version: 6.00 Build 0)  -->
<svg version="1.1" id="Capa_1" xmlns="http://www.w3.org/2000/svg" xmlns:xlink="http://www.w3.org/1999/xlink" x="0px" y="0px"
	 viewBox="0 0 512 512" style="enable-background:new 0 0 512 512;" xml:space="preserve">
<style type="text/css">
	.st0{fill:#5F51D2;}
</style>
<g>
	<g>
		<path class="st0" d="M176,54c-56.8,0-104.7,39.1-118.2,91.7c-0.1,0.3-0.1,0.5-0.2,0.8C55.3,156,54,165.9,54,176
			c0,67.3,54.7,122,122,122s122-54.7,122-122S243.3,54,176,54z M166.2,227.3c-5.5,0-10,4.5-10,10s4.5,10,10,10h82.7
			c-18.5,19-44.4,30.7-72.9,30.7c-56.2,0-102-45.8-102-102c0-6,0.5-11.8,1.5-17.5h43.5c2.3,0,3.6,1.4,4.2,2.2
			c0.6,0.8,1.4,2.5,0.5,4.7l-0.7,1.8c-3,7.7-2.1,16.4,2.6,23.3c4.7,6.9,12.4,11,20.7,11h37.8c5.5,0,10-4.5,10-10s-4.5-10-10-10
			h-37.8c-2.3,0-3.6-1.4-4.2-2.2s-1.4-2.5-0.5-4.7l0.7-1.8c3-7.7,2.1-16.4-2.6-23.3c-4.7-6.9-12.4-11-20.7-11H81.2
			C96.1,100.8,133,74,176,74c33.1,0,62.5,15.8,81.2,40.3H198c-5.5,0-10,4.5-10,10c0,5.5,4.5,10,10,10h71.1
			c5.7,12.7,8.9,26.8,8.9,41.7c0,18.7-5,36.2-13.8,51.2H166.2z"/>
	</g>
</g>
<g>
	<g>
		<path class="st0" d="M452.7,387c-1.9-1.9-4.4-2.9-7.1-2.9s-5.2,1.1-7.1,2.9c-1.9,1.9-2.9,4.4-2.9,7.1s1.1,5.2,2.9,7.1
			c1.9,1.9,4.4,2.9,7.1,2.9s5.2-1.1,7.1-2.9c1.9-1.9,2.9-4.4,2.9-7.1C455.6,391.4,454.6,388.8,452.7,387z"/>
	</g>
</g>
<g>
	<g>
		<path class="st0" d="M498.4,432.6l-21.2-21.2c-3.9-3.9-10.2-3.9-14.1,0c-3.9,3.9-3.9,10.2,0,14.1l21.2,21.2c5,5,7.8,11.7,7.8,18.7
			s-2.8,13.7-7.8,18.7c-10.3,10.3-27.1,10.3-37.5,0l-80.4-80.4l37.5-37.5l9.8,9.8c3.9,3.9,10.2,3.9,14.1,0c3.9-3.9,3.9-10.2,0-14.1
			l-42.5-42.5c-4.8-4.8-11.2-7.5-18-7.5c-6.8,0-13.2,2.7-18,7.5l-7.8,7.8l-30.7-30.7C338.8,265,356,223.5,356,178
			C356,79.9,276.1,0,178,0S0,79.9,0,178s79.9,178,178,178c45.5,0,87-17.2,118.5-45.3l30.7,30.7l-7.8,7.8c-4.8,4.8-7.5,11.2-7.5,18
			c0,6.8,2.7,13.2,7.5,18l25.6,25.6c0,0,0,0,0,0s0,0,0,0l87.5,87.5c9.1,9.1,21,13.6,32.9,13.6s23.8-4.5,32.9-13.6
			C516.5,480.3,516.5,450.8,498.4,432.6z M178,336c-87.1,0-158-70.9-158-158C20,90.9,90.9,20,178,20s158,70.9,158,158
			C336,265.1,265.1,336,178,336z M333.6,371.1c-1-1-1.6-2.4-1.6-3.9s0.6-2.8,1.6-3.9l29.7-29.7c1-1,2.4-1.6,3.9-1.6s2.8,0.6,3.9,1.6
			l18.6,18.6l-37.5,37.5L333.6,371.1z"/>
	</g>
</g>
<g>
	<g>
		<path class="st0" d="M162.9,411.1c-0.4-0.1-0.8-0.2-1.2-0.3c-3.3-6.6-7.6-12.8-13.1-18.3c-13.2-13.2-30.8-20.5-49.5-20.5
			s-36.3,7.3-49.5,20.5c-5.5,5.5-10,11.8-13.3,18.5c-0.8,0-1.6,0.2-2.5,0.5C5.9,420.5,0,433.1,0,442c0,14.6,15.1,24.9,36.5,31.3
			c3.3,6.6,7.7,12.8,13.1,18.2C63.2,505.2,81.1,512,99.1,512c17.9,0,35.9-6.8,49.5-20.5c5.5-5.5,9.8-11.6,13.1-18.2
			c21.4-6.4,36.5-16.7,36.5-31.3C198.1,432.9,192,420,162.9,411.1z M29.5,449.4c-7.2-3.5-9.4-6.6-9.5-7.3c0.1-0.8,2.2-3.8,9.5-7.4
			c-0.3,2.4-0.4,4.9-0.4,7.3C29.1,444.5,29.2,446.9,29.5,449.4z M65.8,479.3c10.8,1.4,22.2,2,33.3,2c11.1,0,22.5-0.7,33.3-2
			C113.5,496.2,84.7,496.2,65.8,479.3z M146.9,456.5c-13.9,3.1-30.5,4.8-47.8,4.8s-33.9-1.7-47.8-4.8c-5.1-17.1-1-36.4,12.5-49.9
			c9.4-9.4,22-14.6,35.4-14.6s25.9,5.2,35.4,14.6C147.9,420.1,152.1,439.4,146.9,456.5z M168.6,449.4c0.5-4.9,0.5-9.8,0-14.7
			c7.2,3.5,9.4,6.6,9.5,7.3C178,442.8,175.9,445.8,168.6,449.4z"/>
	</g>
</g>
<g>
	<g>
		<path class="st0" d="M450,0c-34.2,0-62,27.8-62,62s27.8,62,62,62s62-27.8,62-62S484.2,0,450,0z M450,104c-23.2,0-42-18.8-42-42
			s18.8-42,42-42s42,18.8,42,42S473.2,104,450,104z"/>
	</g>
</g>
<g>
	<g>
		<path class="st0" d="M488.1,249.1l-33-33c-3.9-3.9-10.2-3.9-14.1,0l-33,33c-3.9,3.9-3.9,10.2,0,14.1l33,33
			c1.9,1.9,4.4,2.9,7.1,2.9s5.2-1.1,7.1-2.9l33-33C492,259.3,492,253,488.1,249.1z M448,275l-18.8-18.8l18.8-18.8l18.8,18.8L448,275
			z"/>
	</g>
</g>
<g>
	<g>
		<path class="st0" d="M230.1,184.4c-1.9-1.9-4.4-2.9-7.1-2.9c-2.6,0-5.2,1.1-7.1,2.9c-1.9,1.9-2.9,4.4-2.9,7.1
			c0,2.6,1.1,5.2,2.9,7.1c1.9,1.9,4.4,2.9,7.1,2.9c2.6,0,5.2-1.1,7.1-2.9c1.9-1.9,2.9-4.4,2.9-7.1C233,188.8,232,186.2,230.1,184.4z
			"/>
	</g>
</g>
<g>
	<g>
		<path class="st0" d="M287.1,447.9c-1.9-1.9-4.4-2.9-7.1-2.9s-5.2,1.1-7.1,2.9c-1.9,1.9-2.9,4.4-2.9,7.1s1.1,5.2,2.9,7.1
			c1.9,1.9,4.4,2.9,7.1,2.9s5.2-1.1,7.1-2.9c1.9-1.9,2.9-4.4,2.9-7.1S288.9,449.8,287.1,447.9z"/>
	</g>
</g>
<g>
	<g>
		<path class="st0" d="M426.1,162.9c-1.9-1.9-4.4-2.9-7.1-2.9s-5.2,1.1-7.1,2.9c-1.9,1.9-2.9,4.4-2.9,7.1s1.1,5.2,2.9,7.1
			s4.4,2.9,7.1,2.9s5.2-1.1,7.1-2.9c1.9-1.9,2.9-4.4,2.9-7.1S427.9,164.8,426.1,162.9z"/>
	</g>
</g>
<g>
	<g>
		<path class="st0" d="M503.1,350.6c-1.9-1.9-4.4-2.9-7.1-2.9c-2.6,0-5.2,1.1-7.1,2.9c-1.9,1.9-2.9,4.4-2.9,7.1
			c0,2.6,1.1,5.2,2.9,7.1c1.9,1.9,4.5,2.9,7.1,2.9s5.2-1.1,7.1-2.9c1.9-1.9,2.9-4.4,2.9-7.1S505,352.4,503.1,350.6z"/>
	</g>
</g>
</svg>
