<?xml version="1.0" encoding="utf-8"?>
<!-- Generator: Adobe Illustrator 23.0.2, SVG Export Plug-In . SVG Version: 6.00 Build 0)  -->
<svg version="1.1" id="Capa_1" xmlns="http://www.w3.org/2000/svg" xmlns:xlink="http://www.w3.org/1999/xlink" x="0px" y="0px"
	 viewBox="0 0 512 512" style="enable-background:new 0 0 512 512;" xml:space="preserve">
<style type="text/css">
	.st0{fill:#5F51D2;}
</style>
<g>
	<g>
		<path class="st0" d="M158.4,64.9c-3.9-3.9-10.2-3.9-14.1,0l-26,26c-3.9,3.9-3.9,10.2,0,14.1c2,2,4.5,2.9,7.1,2.9s5.1-1,7.1-2.9
			l26-26C162.3,75.2,162.3,68.8,158.4,64.9z"/>
	</g>
</g>
<g>
	<g>
		<path class="st0" d="M132.8,175h-25.4c-10.6,0-19.3,8.6-19.3,19.3v27.5c0,10.6,8.6,19.3,19.3,19.3h25.4c10.6,0,19.3-8.6,19.3-19.3
			v-27.5C152.1,183.7,143.4,175,132.8,175z M132.1,221.1h-24V195h24V221.1z"/>
	</g>
</g>
<g>
	<g>
		<path class="st0" d="M219.1,180.9c-1.9-1.9-4.4-2.9-7.1-2.9s-5.2,1.1-7.1,2.9s-2.9,4.4-2.9,7.1s1.1,5.2,2.9,7.1s4.4,2.9,7.1,2.9
			s5.2-1.1,7.1-2.9c1.9-1.9,2.9-4.4,2.9-7.1S220.9,182.8,219.1,180.9z"/>
	</g>
</g>
<g>
	<g>
		<path class="st0" d="M467.9,112l41.1-40.9c2.9-2.9,3.7-7.2,2.2-10.9c-1.5-3.7-5.2-6.2-9.2-6.2H349.3v-7.3c0-5.5-4.5-10-10-10
			s-10,4.5-10,10V64v58H194.8c1.8-4.1,2.8-8.6,2.8-13.3V74.4c0-41-33.4-74.4-74.4-74.4S48.8,33.4,48.8,74.4v34.3
			c0,5.6,1.4,10.9,3.8,15.5C22.4,131.9,0,159.4,0,192v104.5C0,321.6,20.4,342,45.5,342H56v123.3c-10.1,9.4-16,22.8-16,36.7
			c0,5.5,4.5,10,10,10h72h72c5.5,0,10-4.5,10-10c0-13.9-5.9-27.3-16-36.7V188c0-5.5-4.5-10-10-10s-10,4.5-10,10v100.5H76V220
			c0-5.5-4.5-10-10-10s-10,4.5-10,10v59.7H20V192c0-27.6,22.4-50,50-50h215.7v36h-41c-5.5,0-10,4.5-10,10s4.5,10,10,10h84.6v304
			c0,5.5,4.5,10,10,10s10-4.5,10-10V188v-18h29.1c5.5,0,10-4.5,10-10s-4.5-10-10-10h-29.1v-18V74h128.5l-31.1,30.9
			c-1.9,1.9-2.9,4.4-2.9,7.1s1.1,5.2,2.9,7.1l31.1,30.9h-16c-5.5,0-10,4.5-10,10s4.5,10,10,10H502c4,0,7.7-2.4,9.2-6.2
			c1.5-3.7,0.7-8-2.2-10.9L467.9,112z M72,477.9c2.5-1.9,4-4.9,4-8V308.5h92v161.4c0,3.1,1.5,6.1,4,8c4.8,3.6,8.3,8.5,10.3,14.1H132
			V389.1v-42.7c0-5.5-4.5-10-10-10s-10,4.5-10,10v42.7V492H61.7C63.7,486.5,67.2,481.5,72,477.9z M56,299.7V322H45.5
			c-13,0-23.7-9.8-25.3-22.3H56z M177.6,108.7c0,7.4-6,13.3-13.3,13.3H155h-33H82.2c-7.4,0-13.3-6-13.3-13.3V74.4
			c0-30,24.4-54.4,54.4-54.4c3.6,0,7.1,0.4,10.5,1L97.7,56.9c-3.9,3.9-3.9,10.2,0,14.1c2,2,4.5,2.9,7.1,2.9s5.1-1,7.1-2.9l41.7-41.7
			c14.4,9.8,24,26.3,24,45.1V108.7z M329.3,160v18h-23.6v-36h23.6V160z"/>
	</g>
</g>
<g>
	<g>
		<path class="st0" d="M427.7,152.9c-1.9-1.9-4.4-2.9-7.1-2.9c-2.6,0-5.2,1.1-7.1,2.9c-1.9,1.9-2.9,4.4-2.9,7.1s1.1,5.2,2.9,7.1
			s4.4,2.9,7.1,2.9c2.6,0,5.2-1.1,7.1-2.9c1.9-1.9,2.9-4.4,2.9-7.1S429.6,154.8,427.7,152.9z"/>
	</g>
</g>
</svg>
